<?xml version="1.0" encoding="utf-8"?>
<!-- Generator: Adobe Illustrator 25.2.0, SVG Export Plug-In . SVG Version: 6.00 Build 0)  -->
<svg version="1.1" id="Layer_1" transform="rotate(180deg)"
	 xmlns="http://www.w3.org/2000/svg" xmlns:xlink="http://www.w3.org/1999/xlink" x="0px" y="0px" viewBox="0 0 492 492"
	 style="enable-background:new 0 0 492 492;" xml:space="preserve" fill="#fff">
<g>
	<g>
		<path d="M7.9,367L24,383.2c5.1,5.1,11.8,7.9,19,7.9c7.2,0,14-2.8,19-7.9l183.8-183.8l184.1,184.1c5.1,5.1,11.8,7.9,19,7.9
			c7.2,0,14-2.8,19-7.9l16.1-16.1c10.5-10.5,10.5-27.6,0-38.1L265,109.3c-5.1-5.1-11.8-8.6-19.1-8.6h-0.1c-7.2,0-14,3.6-19,8.6
			L7.9,328.7c-5.1,5.1-7.9,12-7.9,19.2C0,355.1,2.8,362,7.9,367z"/>
	</g>
</g>
</svg>
